<?xml version="1.0" standalone="no"?><!DOCTYPE svg PUBLIC "-//W3C//DTD SVG 1.1//EN" "http://www.w3.org/Graphics/SVG/1.1/DTD/svg11.dtd"><svg t="1609681936672" class="icon" viewBox="0 0 1024 1024" version="1.1" xmlns="http://www.w3.org/2000/svg" p-id="6107" xmlns:xlink="http://www.w3.org/1999/xlink" width="200" height="200"><defs><style type="text/css"></style></defs><path d="M917.333333 583.893333V200.853333a5.333333 5.333333 0 0 0-5.333333-5.333333H237.706667a5.333333 5.333333 0 0 1-4.16-2.026667l-64.693334-82.666666a5.333333 5.333333 0 0 0-7.466666-0.906667L110.986667 149.333333a5.333333 5.333333 0 0 0-0.906667 7.466667L181.333333 248a5.333333 5.333333 0 0 1 1.12 3.253333v459.68a5.333333 5.333333 0 0 0 5.333334 5.333334H912a5.333333 5.333333 0 0 0 5.333333-5.333334v-64a5.333333 5.333333 0 0 0-5.333333-5.333333H262.506667a5.333333 5.333333 0 0 1-5.333334-5.333333v-41.813334a5.333333 5.333333 0 0 1 5.333334-5.333333H912a5.333333 5.333333 0 0 0 5.333333-5.226667zM262.506667 270.186667H837.333333a5.333333 5.333333 0 0 1 5.333334 5.333333v233.706667a5.333333 5.333333 0 0 1-5.333334 5.333333H262.506667a5.333333 5.333333 0 0 1-5.333334-5.333333V275.52a5.333333 5.333333 0 0 1 5.333334-5.333333z" p-id="6108"></path><path d="M324.853333 716.8a100.533333 100.533333 0 1 0 89.76 89.76 100.533333 100.533333 0 0 0-89.76-89.76z m-3.253333 124.906667a25.866667 25.866667 0 0 1-32-32 25.546667 25.546667 0 0 1 17.866667-17.92 25.973333 25.973333 0 0 1 32 32 25.44 25.44 0 0 1-17.866667 17.92zM795.466667 716.8A100.533333 100.533333 0 1 0 885.333333 806.56a100.586667 100.586667 0 0 0-89.866666-89.76z m-3.2 124.906667a25.92 25.92 0 0 1-32-32 25.546667 25.546667 0 0 1 17.92-17.92 25.92 25.92 0 0 1 32 32 25.493333 25.493333 0 0 1-17.92 17.92z" p-id="6109"></path></svg>