<?xml version="1.0" standalone="no"?><!DOCTYPE svg PUBLIC "-//W3C//DTD SVG 1.1//EN" "http://www.w3.org/Graphics/SVG/1.1/DTD/svg11.dtd"><svg t="1609681928635" class="icon" viewBox="0 0 1024 1024" version="1.1" xmlns="http://www.w3.org/2000/svg" p-id="5956" xmlns:xlink="http://www.w3.org/1999/xlink" width="200" height="200"><defs><style type="text/css"></style></defs><path d="M917.333333 583.893333V200.853333a5.333333 5.333333 0 0 0-5.333333-5.333333H237.76a5.333333 5.333333 0 0 1-4.213333-2.026667l-64.693334-82.666666a5.333333 5.333333 0 0 0-7.466666-0.906667L110.986667 149.333333a5.333333 5.333333 0 0 0-0.906667 7.466667L181.333333 248a5.333333 5.333333 0 0 1 1.12 3.253333v459.68a5.333333 5.333333 0 0 0 5.333334 5.333334H912a5.333333 5.333333 0 0 0 5.333333-5.333334v-64a5.333333 5.333333 0 0 0-5.333333-5.333333H262.506667a5.333333 5.333333 0 0 1-5.333334-5.333333v-41.76a5.333333 5.333333 0 0 1 5.333334-5.333334H912a5.333333 5.333333 0 0 0 5.333333-5.28zM314.666667 716.32a100.533333 100.533333 0 1 0 100.48 100.48A100.533333 100.533333 0 0 0 314.666667 716.32zM314.666667 842.666667a25.866667 25.866667 0 1 1 25.813333-25.866667A25.92 25.92 0 0 1 314.666667 842.666667zM785.226667 716.32a100.533333 100.533333 0 1 0 100.48 100.48 100.48 100.48 0 0 0-100.48-100.48z m0 126.346667a25.866667 25.866667 0 1 1 25.813333-25.866667 25.866667 25.866667 0 0 1-25.813333 25.866667z" p-id="5957"></path></svg>